<svg viewBox="0 0 300 200" xmlns="http://www.w3.org/2000/svg">
  <!-- Smart Configuration Visualization -->
  <defs>
    <linearGradient id="smartGradient" x1="0%" y1="0%" x2="100%" y2="0%">
      <stop offset="0%" style="stop-color:#FF6B6B;stop-opacity:1" />
      <stop offset="50%" style="stop-color:#4ECDC4;stop-opacity:1" />
      <stop offset="100%" style="stop-color:#FFE66D;stop-opacity:1" />
    </linearGradient>
    <filter id="pulse">
      <feGaussianBlur stdDeviation="2" result="coloredBlur"/>
      <feMerge> 
        <feMergeNode in="coloredBlur"/>
        <feMergeNode in="SourceGraphic"/>
      </feMerge>
    </filter>
  </defs>
  
  <!-- Config file representation -->
  <rect x="20" y="40" width="120" height="120" rx="10" fill="#2A2A3E" stroke="#4ECDC4" stroke-width="2"/>
  
  <!-- Config file header -->
  <rect x="20" y="40" width="120" height="30" rx="10" fill="#4ECDC4" opacity="0.2"/>
  <text x="80" y="58" font-family="Courier New" font-size="12" text-anchor="middle" fill="#4ECDC4">config.tsk</text>
  
  <!-- Config file content lines -->
  <line x1="30" y1="85" x2="110" y2="85" stroke="#888" stroke-width="2"/>
  <line x1="30" y1="95" x2="90" y2="95" stroke="#888" stroke-width="2"/>
  <line x1="30" y1="105" x2="120" y2="105" stroke="#FFE66D" stroke-width="2"/>
  <text x="125" y="109" font-family="Courier New" font-size="8" fill="#FFE66D">@optimize</text>
  <line x1="30" y1="115" x2="100" y2="115" stroke="#888" stroke-width="2"/>
  <line x1="30" y1="125" x2="85" y2="125" stroke="#FF6B6B" stroke-width="2"/>
  <text x="90" y="129" font-family="Courier New" font-size="8" fill="#FF6B6B">@learn</text>
  <line x1="30" y1="135" x2="110" y2="135" stroke="#888" stroke-width="2"/>
  <line x1="30" y1="145" x2="95" y2="145" stroke="#888" stroke-width="2"/>
  
  <!-- Arrow showing transformation -->
  <path d="M 150 100 L 180 100" stroke="url(#smartGradient)" stroke-width="3" marker-end="url(#arrowhead)"/>
  <defs>
    <marker id="arrowhead" markerWidth="10" markerHeight="7" 
     refX="0" refY="3.5" orient="auto">
      <polygon points="0 0, 10 3.5, 0 7" fill="url(#smartGradient)" />
    </marker>
  </defs>
  
  <!-- JavaScript runtime representation -->
  <rect x="190" y="40" width="90" height="120" rx="10" fill="#2A2A3E" stroke="#FFE66D" stroke-width="2"/>
  
  <!-- JavaScript logo -->
  <rect x="210" y="60" width="50" height="35" rx="5" fill="#FFE66D"/>
  <text x="235" y="82" font-family="Arial Black" font-size="20" font-weight="900" text-anchor="middle" fill="#2A2A3E">JS</text>
  
  <!-- Performance indicators -->
  <circle cx="215" cy="110" r="3" fill="#4ECDC4" filter="url(#pulse)">
    <animate attributeName="opacity" values="0.3;1;0.3" dur="2s" repeatCount="indefinite"/>
  </circle>
  <circle cx="235" cy="110" r="3" fill="#FFE66D" filter="url(#pulse)">
    <animate attributeName="opacity" values="1;0.3;1" dur="2s" repeatCount="indefinite"/>
  </circle>
  <circle cx="255" cy="110" r="3" fill="#FF6B6B" filter="url(#pulse)">
    <animate attributeName="opacity" values="0.3;1;0.3" dur="2s" repeatCount="indefinite"/>
  </circle>
  
  <!-- Performance metrics -->
  <text x="235" y="130" font-family="Courier New" font-size="8" text-anchor="middle" fill="#4ECDC4">Optimizing...</text>
  <text x="235" y="140" font-family="Courier New" font-size="8" text-anchor="middle" fill="#888">CPU: 47%</text>
  <text x="235" y="150" font-family="Courier New" font-size="8" text-anchor="middle" fill="#888">Memory: 12MB</text>
  
  <!-- Neural network style connections -->
  <g opacity="0.5">
    <path d="M 80 70 Q 150 50 210 70" stroke="#4ECDC4" stroke-width="1" fill="none"/>
    <path d="M 80 100 Q 150 100 210 100" stroke="#FFE66D" stroke-width="1" fill="none"/>
    <path d="M 80 130 Q 150 150 210 130" stroke="#FF6B6B" stroke-width="1" fill="none"/>
  </g>
  
  <!-- Title -->
  <text x="150" y="25" font-family="Arial" font-size="14" font-weight="bold" text-anchor="middle" fill="#4ECDC4">Smart Configuration</text>
</svg>