<svg width="48" height="48" viewBox="0 0 48 48" xmlns="http://www.w3.org/2000/svg">
  <path d="M38 16c-1 .5-2.2.8-3.3 1 1.2-.7 2.1-1.8 2.5-3.2-1.1.7-2.3 1.1-3.6 1.4-1-1.1-2.5-1.8-4.1-1.8-3.1 0-5.6 2.5-5.6 5.6 0 .4 0 .8.1 1.2-4.7-.2-8.8-2.5-11.6-5.9-.5.8-.8 1.8-.8 2.9 0 1.9 1 3.6 2.5 4.6-.9 0-1.8-.3-2.5-.7v.1c0 2.7 1.9 5 4.5 5.5-.5.1-1 .2-1.5.2-.4 0-.7 0-1-.1.7 2.2 2.8 3.9 5.2 3.9-1.9 1.5-4.3 2.4-7 2.4-.5 0-.9 0-1.4-.1 2.5 1.6 5.4 2.5 8.6 2.5 10.3 0 15.9-8.5 15.9-15.9v-.7c1.1-.8 2-1.8 2.8-2.9z" fill="#1DA1F2"/>
</svg>