<svg width="800" height="500" viewBox="0 0 800 500" xmlns="http://www.w3.org/2000/svg">
  <defs>
    <linearGradient id="gameGradient" x1="0%" y1="0%" x2="100%" y2="100%">
      <stop offset="0%" style="stop-color:#e74c3c;stop-opacity:1" />
      <stop offset="50%" style="stop-color:#f39c12;stop-opacity:1" />
      <stop offset="100%" style="stop-color:#e74c3c;stop-opacity:1" />
    </linearGradient>
    <linearGradient id="healthGradient" x1="0%" y1="0%" x2="100%" y2="0%">
      <stop offset="0%" style="stop-color:#2ecc71;stop-opacity:1" />
      <stop offset="75%" style="stop-color:#2ecc71;stop-opacity:1" />
      <stop offset="75%" style="stop-color:#ecf0f1;stop-opacity:1" />
      <stop offset="100%" style="stop-color:#ecf0f1;stop-opacity:1" />
    </linearGradient>
    <pattern id="grid" width="40" height="40" patternUnits="userSpaceOnUse">
      <path d="M 40 0 L 0 0 0 40" fill="none" stroke="#f0f0f0" stroke-width="1"/>
    </pattern>
    <filter id="pixelate">
      <feMorphology operator="dilate" radius="2"/>
    </filter>
  </defs>
  
  <!-- Background -->
  <rect width="800" height="500" fill="#fafafa"/>
  <rect width="800" height="500" fill="url(#grid)"/>
  
  <!-- Title -->
  <text x="400" y="40" font-family="Arial, sans-serif" font-size="28" font-weight="bold" text-anchor="middle" fill="#2a2a3e">
    🎮 Game Development with TuskLang
  </text>
  
  <!-- Game Window -->
  <g transform="translate(400, 280)">
    <rect x="-350" y="-180" width="700" height="360" fill="#1a1a2e" stroke="url(#gameGradient)" stroke-width="3" rx="10"/>
    
    <!-- Player Character -->
    <g transform="translate(-200, -50)">
      <rect x="-20" y="-40" width="40" height="80" fill="#3498db" filter="url(#pixelate)"/>
      <rect x="-15" y="-35" width="10" height="10" fill="#fff"/>
      <rect x="5" y="-35" width="10" height="10" fill="#fff"/>
      <text x="0" y="-55" font-family="Arial, sans-serif" font-size="12" text-anchor="middle" fill="#fff">Player</text>
    </g>
    
    <!-- Enemy -->
    <g transform="translate(100, -50)">
      <rect x="-20" y="-40" width="40" height="80" fill="#e74c3c" filter="url(#pixelate)"/>
      <rect x="-15" y="-35" width="10" height="10" fill="#000"/>
      <rect x="5" y="-35" width="10" height="10" fill="#000"/>
      <text x="0" y="-55" font-family="Arial, sans-serif" font-size="12" text-anchor="middle" fill="#fff">Enemy</text>
    </g>
    
    <!-- Health Bar -->
    <g transform="translate(-200, -150)">
      <text x="0" y="-5" font-family="Arial, sans-serif" font-size="12" fill="#fff">Health</text>
      <rect x="50" y="-15" width="100" height="20" fill="#ecf0f1" rx="10"/>
      <rect x="50" y="-15" width="75" height="20" fill="url(#healthGradient)" rx="10"/>
    </g>
    
    <!-- Config Display -->
    <rect x="-340" y="-170" width="280" height="155" fill="#2a2a3e" stroke="#444" stroke-width="1" rx="5"/>
    <text x="-330" y="-150" font-family="monospace" font-size="11" fill="#4ecdc4">[player]</text>
    <text x="-330" y="-135" font-family="monospace" font-size="11" fill="#fff">health: 100</text>
    <text x="-330" y="-120" font-family="monospace" font-size="11" fill="#fff">speed: 5.0</text>
    <text x="-330" y="-105" font-family="monospace" font-size="11" fill="#fff">damage: @query("SELECT dmg FROM items")</text>
    
    <text x="-330" y="-80" font-family="monospace" font-size="11" fill="#4ecdc4">[combat]</text>
    <text x="-330" y="-65" font-family="monospace" font-size="11" fill="#fff">damage_calc_fujsen: """</text>
    <text x="-320" y="-50" font-family="monospace" font-size="10" fill="#ffd43b">function calculate(atk, def, wpn) {</text>
    <text x="-310" y="-37" font-family="monospace" font-size="10" fill="#fff">return Math.max(1,</text>
    <text x="-300" y="-24" font-family="monospace" font-size="10" fill="#fff">(atk * wpn.power) - (def * 0.1));</text>
    <text x="-320" y="-11" font-family="monospace" font-size="10" fill="#ffd43b">}</text>
    <text x="-330" y="2" font-family="monospace" font-size="11" fill="#fff">"""</text>
  </g>
  
  <!-- Features -->
  <g transform="translate(400, 450)">
    <text x="-300" y="0" font-family="Arial, sans-serif" font-size="14" fill="#666">✓ Real-time stat updates</text>
    <text x="-100" y="0" font-family="Arial, sans-serif" font-size="14" fill="#666">✓ Database-driven items</text>
    <text x="100" y="0" font-family="Arial, sans-serif" font-size="14" fill="#666">✓ Hot-reload configs</text>
  </g>
</svg>