<svg width="24" height="24" viewBox="0 0 24 24" fill="none" xmlns="http://www.w3.org/2000/svg">
  <path d="M20.222 0c1.406 0 2.54 1.137 2.607 2.475V24l-2.677-2.273-1.47-1.338-1.604-1.398.67 2.205H3.71c-1.402 0-2.54-1.065-2.54-2.476V2.48C1.17 1.142 2.31.003 3.715.003h16.5L20.222 0zm-6.118 5.683h-.03l-.202.2c2.073.6 3.076 1.537 3.076 1.537-1.336-.668-2.54-1.002-3.744-1.137-.87-.135-1.74-.064-2.475 0h-.2c-.47 0-1.47.2-2.81.735-.467.203-.735.336-.735.336s1.002-1.002 3.21-1.537l-.135-.135s-1.672-.064-3.477 1.27c0 0-1.805 3.144-1.805 7.02 0 0 1.002 1.74 3.744 1.806 0 0 .4-.533.805-1.002-1.54-.468-2.14-1.404-2.14-1.404s.134.066.335.2h.06c.03 0 .044.015.06.03v.006c.016.016.03.03.06.03.33.136.66.27.93.4a8.18 8.18 0 001.8.536 9.04 9.04 0 003.01 0 8.42 8.42 0 001.74-.536c.414-.202.87-.47 1.34-.806 0 0-.67 1.002-2.205 1.47.336.47.805 1.002.805 1.002 2.74-.064 3.81-1.806 3.876-1.74 0-3.876-1.806-7.02-1.806-7.02-1.74-1.268-3.41-1.268-3.41-1.268l-.134.134zm-.27 4.424c.67 0 1.203.602 1.203 1.34 0 .736-.533 1.336-1.203 1.336-.67 0-1.203-.6-1.203-1.337s.533-1.34 1.203-1.34zm-4.305 0c.67 0 1.203.602 1.203 1.34 0 .736-.533 1.336-1.203 1.336-.67 0-1.203-.6-1.203-1.337s.533-1.34 1.203-1.34z" fill="currentColor"/>
</svg>