<svg width="600" height="200" viewBox="0 0 600 200" xmlns="http://www.w3.org/2000/svg">
  <defs>
    <filter id="fire">
      <feTurbulence baseFrequency="0.02" numOctaves="3" seed="2">
        <animate attributeName="baseFrequency" values="0.02;0.04;0.02" dur="1s" repeatCount="indefinite"/>
      </feTurbulence>
      <feColorMatrix values="0 0 0 0 1
                             0 0 0 0 0.4
                             0 0 0 0 0
                             0 0 0 1 0"/>
    </filter>
  </defs>
  
  <!-- JSON -->
  <g transform="translate(100, 100)">
    <rect x="-40" y="-30" width="80" height="60" fill="#F8F9FA" stroke="#FF6B6B" stroke-width="2"/>
    <text x="0" y="5" font-family="monospace" font-size="18" text-anchor="middle" fill="#1A1A1A">JSON</text>
    <line x1="-50" y1="-40" x2="50" y2="40" stroke="#FF6B6B" stroke-width="4"/>
    <line x1="50" y1="-40" x2="-50" y2="40" stroke="#FF6B6B" stroke-width="4"/>
    <text x="0" y="-50" font-family="Arial, sans-serif" font-size="20" font-weight="bold" text-anchor="middle" fill="#FF6B6B">FU*K</text>
  </g>
  
  <!-- ENV -->
  <g transform="translate(300, 100)">
    <rect x="-40" y="-30" width="80" height="60" fill="#F8F9FA" stroke="#FF6B6B" stroke-width="2"/>
    <text x="0" y="5" font-family="monospace" font-size="18" text-anchor="middle" fill="#1A1A1A">ENV</text>
    <line x1="-50" y1="-40" x2="50" y2="40" stroke="#FF6B6B" stroke-width="4"/>
    <line x1="50" y1="-40" x2="-50" y2="40" stroke="#FF6B6B" stroke-width="4"/>
    <text x="0" y="-50" font-family="Arial, sans-serif" font-size="20" font-weight="bold" text-anchor="middle" fill="#FF6B6B">FU*K</text>
  </g>
  
  <!-- YAML -->
  <g transform="translate(500, 100)">
    <rect x="-40" y="-30" width="80" height="60" fill="#F8F9FA" stroke="#FF6B6B" stroke-width="2"/>
    <text x="0" y="5" font-family="monospace" font-size="18" text-anchor="middle" fill="#1A1A1A">YAML</text>
    <line x1="-50" y1="-40" x2="50" y2="40" stroke="#FF6B6B" stroke-width="4"/>
    <line x1="50" y1="-40" x2="-50" y2="40" stroke="#FF6B6B" stroke-width="4"/>
    <text x="0" y="-50" font-family="Arial, sans-serif" font-size="20" font-weight="bold" text-anchor="middle" fill="#FF6B6B">FU*K</text>
  </g>
  
  <!-- Fire effect rectangles -->
  <rect x="50" y="140" width="100" height="40" fill="#FF6B6B" opacity="0.3" filter="url(#fire)"/>
  <rect x="250" y="140" width="100" height="40" fill="#FF6B6B" opacity="0.3" filter="url(#fire)"/>
  <rect x="450" y="140" width="100" height="40" fill="#FF6B6B" opacity="0.3" filter="url(#fire)"/>
</svg>