<svg width="600" height="400" viewBox="0 0 600 400" xmlns="http://www.w3.org/2000/svg">
  <defs>
    <marker id="arrowhead" markerWidth="10" markerHeight="7" refX="9" refY="3.5" orient="auto">
      <polygon points="0 0, 10 3.5, 0 7" fill="#4ECDC4"/>
    </marker>
  </defs>
  
  <!-- Config File -->
  <g transform="translate(150, 200)">
    <rect x="-60" y="-80" width="120" height="160" fill="#F8F9FA" stroke="#4ECDC4" stroke-width="2" rx="5"/>
    <text x="0" y="-90" font-family="monospace" font-size="14" text-anchor="middle" fill="#1A1A1A">config.tsk</text>
    <text x="0" y="-50" font-family="monospace" font-size="12" text-anchor="middle" fill="#FF6B6B">@query()</text>
    <text x="0" y="-30" font-family="monospace" font-size="12" text-anchor="middle" fill="#FFE66D">@cache()</text>
    <text x="0" y="-10" font-family="monospace" font-size="12" text-anchor="middle" fill="#4ECDC4">@env()</text>
  </g>
  
  <!-- Database -->
  <g transform="translate(450, 100)">
    <ellipse cx="0" cy="-20" rx="40" ry="10" fill="#F8F9FA" stroke="#FF6B6B" stroke-width="2"/>
    <rect x="-40" y="-20" width="80" height="40" fill="#F8F9FA" stroke="#FF6B6B" stroke-width="2"/>
    <ellipse cx="0" cy="20" rx="40" ry="10" fill="#F8F9FA" stroke="#FF6B6B" stroke-width="2"/>
    <text x="0" y="50" font-family="monospace" font-size="12" text-anchor="middle" fill="#1A1A1A">Database</text>
  </g>
  
  <!-- API -->
  <g transform="translate(450, 300)">
    <rect x="-40" y="-30" width="80" height="60" fill="#F8F9FA" stroke="#FFE66D" stroke-width="2" rx="5"/>
    <text x="0" y="5" font-family="monospace" font-size="12" text-anchor="middle" fill="#1A1A1A">API</text>
  </g>
  
  <!-- Animated connection lines -->
  <g>
    <!-- Config to Database -->
    <path d="M 210 150 Q 300 100 390 100" fill="none" stroke="#FF6B6B" stroke-width="2" marker-end="url(#arrowhead)">
      <animate attributeName="stroke-dasharray" values="0 300;300 0" dur="2s" repeatCount="indefinite"/>
    </path>
    
    <!-- Config to API -->
    <path d="M 210 250 Q 300 300 410 300" fill="none" stroke="#FFE66D" stroke-width="2" marker-end="url(#arrowhead)">
      <animate attributeName="stroke-dasharray" values="0 300;300 0" dur="2s" begin="0.5s" repeatCount="indefinite"/>
    </path>
    
    <!-- Moving data packets -->
    <circle r="5" fill="#4ECDC4">
      <animateMotion dur="2s" repeatCount="indefinite">
        <mpath href="#dataPath1"/>
      </animateMotion>
    </circle>
    
    <circle r="5" fill="#FFE66D">
      <animateMotion dur="2s" begin="1s" repeatCount="indefinite">
        <mpath href="#dataPath2"/>
      </animateMotion>
    </circle>
  </g>
  
  <!-- Paths for data animation -->
  <path id="dataPath1" d="M 210 150 Q 300 100 390 100" fill="none" stroke="none"/>
  <path id="dataPath2" d="M 210 250 Q 300 300 410 300" fill="none" stroke="none"/>
  
  <!-- Title -->
  <text x="300" y="30" font-family="Arial, sans-serif" font-size="24" font-weight="bold" text-anchor="middle" fill="#1A1A1A">Real-time Configuration</text>
</svg>